<svg width="441" height="401" viewBox="0 0 441 401" fill="none" xmlns="http://www.w3.org/2000/svg">
<rect width="441" height="401" rx="69" fill="white"/>
<path d="M156.2 148H126V124H213.6V148H183.4V264H156.2V148ZM252.402 240.8H270.402C274.135 236.133 277.068 229.333 279.202 220.4C281.468 211.467 282.602 202.6 282.602 193.8C282.602 172.867 278.668 157.6 270.802 148H252.402V240.8ZM225.202 264V124H283.202C302.135 140.8 311.602 163.6 311.602 192.4C311.602 221.067 302.735 244.933 285.002 264H225.202Z" fill="black"/>
<path d="M162.8 294H157.88V280.6H154.4V279H157.88V269.24H159.52V279H164.16V280.6H159.52V292.44H162.8V294ZM181.338 290.12C180.805 291.4 179.938 292.427 178.738 293.2C177.565 293.947 176.245 294.32 174.778 294.32C173.311 294.32 172.151 293.907 171.298 293.08C170.445 292.253 169.991 291.173 169.938 289.84V280.56H166.978V279H171.578V289.4C171.631 290.28 171.938 291.04 172.498 291.68C173.085 292.293 173.938 292.627 175.058 292.68C175.885 292.68 176.658 292.547 177.378 292.28C178.125 292.013 178.791 291.627 179.378 291.12C179.938 290.667 180.378 290.107 180.698 289.44C181.045 288.747 181.218 288 181.218 287.2V280.56H178.258V279H182.858V292.56H185.698V294H181.418L181.338 291.92V290.12ZM196.222 294H188.502V292.44H191.622V265.56H188.662V264H193.262V281.08L193.142 282.88C193.702 281.6 194.555 280.587 195.702 279.84C196.848 279.093 198.182 278.707 199.702 278.68C201.168 278.68 202.328 279.093 203.182 279.92C204.035 280.747 204.488 281.827 204.542 283.16V292.44H207.502V294H199.782V292.44H202.902V283.6C202.848 282.72 202.528 281.973 201.942 281.36C201.382 280.72 200.542 280.373 199.422 280.32C198.595 280.32 197.808 280.453 197.062 280.72C196.315 280.987 195.675 281.36 195.142 281.84C194.555 282.347 194.088 282.933 193.742 283.6C193.422 284.267 193.262 285 193.262 285.8V292.44H196.222V294ZM218.018 294H210.298V292.44H213.378V280.56H210.298V279H215.018V292.44H218.018V294ZM215.538 273.68C215.538 274.053 215.405 274.373 215.138 274.64C214.872 274.88 214.565 275 214.218 275C213.898 275 213.605 274.88 213.338 274.64C213.072 274.373 212.938 274.053 212.938 273.68C212.938 273.307 213.072 273 213.338 272.76C213.605 272.493 213.898 272.36 214.218 272.36C214.565 272.36 214.872 272.493 215.138 272.76C215.405 273 215.538 273.307 215.538 273.68ZM228.526 294H220.806V292.44H223.926V280.56H221.046V279H225.246L225.286 280.44C225.313 280.893 225.34 281.307 225.366 281.68C225.393 282.027 225.42 282.427 225.446 282.88C225.98 281.627 226.833 280.613 228.006 279.84C229.18 279.067 230.513 278.68 232.006 278.68C233.473 278.68 234.633 279.093 235.486 279.92C236.34 280.747 236.793 281.827 236.846 283.16V292.44H239.806V294H232.086V292.44H235.206V283.6C235.153 282.72 234.833 281.973 234.246 281.36C233.686 280.72 232.846 280.373 231.726 280.32C230.9 280.32 230.113 280.453 229.366 280.72C228.62 280.987 227.98 281.36 227.446 281.84C226.86 282.347 226.393 282.933 226.046 283.6C225.726 284.267 225.566 285 225.566 285.8V292.44H228.526V294ZM245.923 292.68C245.923 293.053 245.79 293.373 245.523 293.64C245.256 293.88 244.963 294 244.643 294C244.296 294 243.99 293.88 243.723 293.64C243.456 293.373 243.323 293.053 243.323 292.68C243.323 292.333 243.456 292.04 243.723 291.8C243.99 291.533 244.296 291.4 244.643 291.4C244.963 291.4 245.256 291.533 245.523 291.8C245.79 292.04 245.923 292.333 245.923 292.68ZM267.847 294H263.407V292.36C263.407 292.04 263.407 291.747 263.407 291.48C263.407 291.187 263.407 290.867 263.407 290.52C263.22 291 262.927 291.467 262.527 291.92C262.153 292.347 261.7 292.733 261.167 293.08C260.607 293.453 259.967 293.747 259.247 293.96C258.553 294.173 257.807 294.28 257.007 294.28C255.887 294.28 254.847 294.08 253.887 293.68C252.953 293.28 252.127 292.72 251.407 292C250.687 291.28 250.127 290.453 249.727 289.52C249.327 288.587 249.127 287.573 249.127 286.48C249.127 285.413 249.327 284.4 249.727 283.44C250.127 282.48 250.687 281.653 251.407 280.96C252.127 280.267 252.953 279.72 253.887 279.32C254.847 278.893 255.887 278.68 257.007 278.68C257.753 278.68 258.473 278.787 259.167 279C259.887 279.213 260.527 279.493 261.087 279.84C261.647 280.213 262.1 280.613 262.447 281.04C262.793 281.467 263.073 281.907 263.287 282.36C263.26 281.64 263.247 281.053 263.247 280.6C263.247 280.147 263.247 279.56 263.247 278.84V265.56H260.407V264H264.887V292.44H267.847V294ZM257.007 280.28C256.1 280.28 255.273 280.44 254.527 280.76C253.78 281.08 253.127 281.52 252.567 282.08C252.007 282.64 251.567 283.307 251.247 284.08C250.927 284.827 250.767 285.627 250.767 286.48C250.767 287.36 250.927 288.187 251.247 288.96C251.593 289.733 252.06 290.387 252.647 290.92C253.207 291.48 253.847 291.92 254.567 292.24C255.313 292.533 256.127 292.68 257.007 292.68C257.86 292.68 258.647 292.533 259.367 292.24C260.113 291.92 260.78 291.48 261.367 290.92C261.953 290.387 262.407 289.733 262.727 288.96C263.073 288.187 263.247 287.36 263.247 286.48C263.247 285.6 263.073 284.773 262.727 284C262.38 283.2 261.913 282.52 261.327 281.96C260.767 281.427 260.113 281.013 259.367 280.72C258.62 280.427 257.833 280.28 257.007 280.28ZM278.49 280.28C277.477 280.28 276.543 280.493 275.69 280.92C274.863 281.347 274.17 281.92 273.61 282.64C273.077 283.333 272.703 284.12 272.49 285C272.277 285.853 272.263 286.733 272.45 287.64C274.263 286.92 276.063 286.213 277.85 285.52C279.663 284.8 281.477 284.08 283.29 283.36C282.81 282.453 282.143 281.72 281.29 281.16C280.463 280.573 279.53 280.28 278.49 280.28ZM283.73 292.2C283.037 292.84 282.25 293.347 281.37 293.72C280.49 294.093 279.53 294.28 278.49 294.28C277.397 294.28 276.37 294.08 275.41 293.68C274.477 293.28 273.65 292.72 272.93 292C272.21 291.28 271.65 290.453 271.25 289.52C270.85 288.587 270.65 287.573 270.65 286.48C270.65 285.413 270.85 284.4 271.25 283.44C271.65 282.48 272.21 281.653 272.93 280.96C273.65 280.267 274.477 279.72 275.41 279.32C276.37 278.893 277.397 278.68 278.49 278.68C279.317 278.68 280.103 278.827 280.85 279.12C281.597 279.387 282.263 279.787 282.85 280.32C283.41 280.8 283.903 281.387 284.33 282.08C284.757 282.747 285.103 283.48 285.37 284.28C283.29 285.107 281.21 285.92 279.13 286.72C277.077 287.52 275.01 288.347 272.93 289.2C273.41 290.24 274.143 291.08 275.13 291.72C276.117 292.36 277.237 292.68 278.49 292.68C279.317 292.68 280.09 292.533 280.81 292.24C281.53 291.947 282.17 291.533 282.73 291L283.73 292.2ZM306.106 280.56C304.88 282.987 303.653 285.387 302.426 287.76C301.2 290.133 299.973 292.52 298.746 294.92C297.52 292.52 296.293 290.133 295.066 287.76C293.84 285.387 292.613 282.987 291.386 280.56H288.306V279H295.706V280.56H293.066C294.053 282.453 295.026 284.347 295.986 286.24C296.946 288.133 297.866 290.027 298.746 291.92C299.546 290.133 300.44 288.28 301.426 286.36C302.413 284.44 303.4 282.507 304.386 280.56H302.026V279H309.026V280.56H306.106Z" fill="#0F0101"/>
</svg>
